<svg width="468" height="130" viewBox="0 0 468 130" fill="none" xmlns="http://www.w3.org/2000/svg">
<path d="M17.258 50L0.49 3.92H9.45L20.586 34.32L31.722 3.92H39.978L51.114 34.32L62.186 3.92H71.21L54.442 50H47.786L35.818 17.36L23.914 50H17.258ZM82.9115 50C81.2902 50 79.7968 49.5947 78.4315 48.784C77.1088 47.9733 76.0422 46.9067 75.2315 45.584C74.4635 44.2613 74.0795 42.7893 74.0795 41.168V12.88H82.4635V40.848C82.4635 41.0613 82.5275 41.2533 82.6555 41.424C82.8262 41.552 83.0182 41.616 83.2315 41.616H102.624C102.837 41.616 103.008 41.552 103.136 41.424C103.306 41.2533 103.392 41.0613 103.392 40.848V12.88H111.776V41.168C111.776 42.7893 111.37 44.2613 110.56 45.584C109.792 46.9067 108.746 47.9733 107.424 48.784C106.101 49.5947 104.608 50 102.944 50H82.9115ZM127.348 50C125.726 50 124.254 49.5947 122.932 48.784C121.609 47.9733 120.542 46.9067 119.732 45.584C118.921 44.2613 118.516 42.7893 118.516 41.168V0.655998H126.964V40.848C126.964 41.0613 127.028 41.2533 127.156 41.424C127.326 41.552 127.518 41.616 127.732 41.616H134.836V50H127.348ZM139.519 50V0.719997H147.903V27.216H154.495L167.743 12.88H176.703V15.184L161.919 31.44L176.639 47.696V50H167.743L154.495 35.664H147.903V50H139.519ZM189.598 50C187.976 50 186.483 49.5947 185.118 48.784C183.795 47.9733 182.728 46.9067 181.918 45.584C181.15 44.2613 180.766 42.7893 180.766 41.168V27.216H210.078V22.032C210.078 21.8187 209.992 21.648 209.822 21.52C209.694 21.3493 209.523 21.264 209.31 21.264H180.766V12.88H209.63C211.251 12.88 212.723 13.2853 214.046 14.096C215.411 14.9067 216.478 15.9733 217.246 17.296C218.056 18.6187 218.462 20.0907 218.462 21.712V50H189.598ZM189.918 41.616H210.078V34.768H189.15V40.848C189.15 41.0613 189.214 41.2533 189.342 41.424C189.512 41.552 189.704 41.616 189.918 41.616ZM224.644 50V12.88H253.507C255.129 12.88 256.601 13.2853 257.924 14.096C259.289 14.9067 260.356 15.9733 261.124 17.296C261.934 18.6187 262.34 20.0907 262.34 21.712V50H253.956V22.032C253.956 21.8187 253.87 21.648 253.7 21.52C253.572 21.3493 253.401 21.264 253.188 21.264H233.796C233.582 21.264 233.39 21.3493 233.22 21.52C233.092 21.648 233.028 21.8187 233.028 22.032V50H224.644ZM269.078 50V12.88H277.462V50H269.078ZM269.078 9.168V0.719997H277.462V9.168H269.078ZM283.831 50V40.848L309.175 21.264H283.831V12.88H321.527V22.032L296.183 41.616H321.527V50H283.831ZM335.535 50C333.914 50 332.42 49.5947 331.055 48.784C329.732 47.9733 328.666 46.9067 327.855 45.584C327.087 44.2613 326.703 42.7893 326.703 41.168V27.216H356.015V22.032C356.015 21.8187 355.93 21.648 355.759 21.52C355.631 21.3493 355.46 21.264 355.247 21.264H326.703V12.88H355.567C357.188 12.88 358.66 13.2853 359.983 14.096C361.348 14.9067 362.415 15.9733 363.183 17.296C363.994 18.6187 364.399 20.0907 364.399 21.712V50H335.535ZM335.855 41.616H356.015V34.768H335.087V40.848C335.087 41.0613 335.151 41.2533 335.279 41.424C335.45 41.552 335.642 41.616 335.855 41.616ZM378.159 50C376.537 50 375.065 49.5947 373.743 48.784C372.42 47.9733 371.353 46.9067 370.543 45.584C369.732 44.2613 369.327 42.7893 369.327 41.168V21.712C369.327 20.0907 369.732 18.6187 370.543 17.296C371.353 15.9733 372.42 14.9067 373.743 14.096C375.065 13.2853 376.537 12.88 378.159 12.88H406.959V21.264H378.479C378.265 21.264 378.073 21.3493 377.903 21.52C377.775 21.648 377.711 21.8187 377.711 22.032V40.848C377.711 41.0613 377.775 41.2533 377.903 41.424C378.073 41.552 378.265 41.616 378.479 41.616H407.023V50H378.159ZM398.594 64.016V55.568H414.275C414.488 55.568 414.659 55.4827 414.786 55.312C414.957 55.184 415.043 55.0133 415.043 54.8V12.88H423.427V55.184C423.427 56.8053 423.021 58.2773 422.211 59.6C421.443 60.9653 420.376 62.032 419.01 62.8C417.688 63.6107 416.216 64.016 414.595 64.016H398.594ZM415.043 9.168V0.719997H423.427V9.168H415.043ZM438.473 50C436.851 50 435.358 49.5947 433.993 48.784C432.67 47.9733 431.603 46.9067 430.793 45.584C430.025 44.2613 429.641 42.7893 429.641 41.168V27.216H458.953V22.032C458.953 21.8187 458.867 21.648 458.697 21.52C458.569 21.3493 458.398 21.264 458.185 21.264H429.641V12.88H458.505C460.126 12.88 461.598 13.2853 462.921 14.096C464.286 14.9067 465.353 15.9733 466.121 17.296C466.931 18.6187 467.337 20.0907 467.337 21.712V50H438.473ZM438.793 41.616H458.953V34.768H438.025V40.848C438.025 41.0613 438.089 41.2533 438.217 41.424C438.387 41.552 438.579 41.616 438.793 41.616ZM137.352 130L120.584 83.92H129.544L140.68 114.32L151.816 83.92H160.072L171.208 114.32L182.28 83.92H191.304L174.536 130H167.88L155.912 97.36L144.008 130H137.352ZM203.633 130C202.012 130 200.519 129.595 199.153 128.784C197.831 127.973 196.764 126.907 195.953 125.584C195.143 124.219 194.737 122.725 194.737 121.104V92.816C194.737 91.1947 195.143 89.7227 195.953 88.4C196.764 87.0347 197.831 85.9467 199.153 85.136C200.519 84.3253 202.012 83.92 203.633 83.92H231.921C233.543 83.92 235.015 84.3253 236.337 85.136C237.703 85.9467 238.791 87.0347 239.601 88.4C240.412 89.7227 240.817 91.1947 240.817 92.816V121.104C240.817 122.725 240.412 124.219 239.601 125.584C238.791 126.907 237.703 127.973 236.337 128.784C235.015 129.595 233.543 130 231.921 130H203.633ZM203.953 121.488H231.473C231.687 121.488 231.879 121.424 232.049 121.296C232.22 121.125 232.305 120.933 232.305 120.72V93.2C232.305 92.9867 232.22 92.816 232.049 92.688C231.879 92.5173 231.687 92.432 231.473 92.432H203.953C203.74 92.432 203.548 92.5173 203.377 92.688C203.249 92.816 203.185 92.9867 203.185 93.2V120.72C203.185 120.933 203.249 121.125 203.377 121.296C203.548 121.424 203.74 121.488 203.953 121.488ZM247.993 130V92.816C247.993 91.1947 248.399 89.7227 249.209 88.4C250.02 87.0347 251.087 85.9467 252.409 85.136C253.775 84.3253 255.268 83.92 256.889 83.92H285.113C286.735 83.92 288.228 84.3253 289.593 85.136C290.959 85.9467 292.047 87.0347 292.857 88.4C293.668 89.7227 294.073 91.1947 294.073 92.816V130H285.561V114.512H256.441V130H247.993ZM256.441 106.064H285.561V93.2C285.561 92.9867 285.476 92.816 285.305 92.688C285.135 92.5173 284.943 92.432 284.729 92.432H257.209C256.996 92.432 256.804 92.5173 256.633 92.688C256.505 92.816 256.441 92.9867 256.441 93.2V106.064ZM310.069 130C308.448 130 306.955 129.595 305.589 128.784C304.267 127.973 303.2 126.907 302.389 125.584C301.579 124.219 301.173 122.725 301.173 121.104V117.584H309.621V120.72C309.621 120.933 309.685 121.125 309.813 121.296C309.984 121.424 310.176 121.488 310.389 121.488H337.973C338.187 121.488 338.357 121.424 338.485 121.296C338.656 121.125 338.741 120.933 338.741 120.72V111.952C338.741 111.739 338.656 111.568 338.485 111.44C338.357 111.312 338.187 111.248 337.973 111.248H310.069C308.448 111.248 306.955 110.843 305.589 110.032C304.267 109.221 303.2 108.155 302.389 106.832C301.579 105.467 301.173 103.952 301.173 102.288V92.816C301.173 91.1947 301.579 89.7227 302.389 88.4C303.2 87.0347 304.267 85.9467 305.589 85.136C306.955 84.3253 308.448 83.92 310.069 83.92H338.357C339.979 83.92 341.451 84.3253 342.773 85.136C344.139 85.9467 345.227 87.0347 346.037 88.4C346.848 89.7227 347.253 91.1947 347.253 92.816V96.336H338.741V93.2C338.741 92.9867 338.656 92.816 338.485 92.688C338.357 92.5173 338.187 92.432 337.973 92.432H310.389C310.176 92.432 309.984 92.5173 309.813 92.688C309.685 92.816 309.621 92.9867 309.621 93.2V101.968C309.621 102.181 309.685 102.352 309.813 102.48C309.984 102.608 310.176 102.672 310.389 102.672H338.357C339.979 102.672 341.451 103.077 342.773 103.888C344.139 104.699 345.227 105.787 346.037 107.152C346.848 108.475 347.253 109.968 347.253 111.632V121.104C347.253 122.725 346.848 124.219 346.037 125.584C345.227 126.907 344.139 127.973 342.773 128.784C341.451 129.595 339.979 130 338.357 130H310.069Z" fill="#EEEEEE"/>
</svg>
