<svg width="701" height="195" viewBox="0 0 701 195" fill="none" xmlns="http://www.w3.org/2000/svg">
<path d="M25.637 75L0.485 5.88H13.925L30.629 51.48L47.333 5.88H59.717L76.421 51.48L93.029 5.88H106.565L81.413 75H71.429L53.477 26.04L35.621 75H25.637ZM124.117 75C121.685 75 119.445 74.392 117.397 73.176C115.413 71.96 113.813 70.36 112.597 68.376C111.445 66.392 110.869 64.184 110.869 61.752V19.32H123.445V61.272C123.445 61.592 123.541 61.88 123.733 62.136C123.989 62.328 124.277 62.424 124.597 62.424H153.685C154.005 62.424 154.261 62.328 154.453 62.136C154.709 61.88 154.837 61.592 154.837 61.272V19.32H167.413V61.752C167.413 64.184 166.805 66.392 165.589 68.376C164.437 70.36 162.869 71.96 160.885 73.176C158.901 74.392 156.661 75 154.165 75H124.117ZM190.771 75C188.339 75 186.131 74.392 184.147 73.176C182.163 71.96 180.563 70.36 179.347 68.376C178.131 66.392 177.523 64.184 177.523 61.752V0.983997H190.195V61.272C190.195 61.592 190.291 61.88 190.483 62.136C190.739 62.328 191.027 62.424 191.347 62.424H202.003V75H190.771ZM209.028 75V1.08H221.604V40.824H231.492L251.364 19.32H264.804V22.776L242.628 47.16L264.708 71.544V75H251.364L231.492 53.496H221.604V75H209.028ZM284.146 75C281.714 75 279.474 74.392 277.426 73.176C275.442 71.96 273.842 70.36 272.626 68.376C271.474 66.392 270.898 64.184 270.898 61.752V40.824H314.866V33.048C314.866 32.728 314.738 32.472 314.482 32.28C314.29 32.024 314.034 31.896 313.714 31.896H270.898V19.32H314.194C316.626 19.32 318.834 19.928 320.818 21.144C322.866 22.36 324.466 23.96 325.618 25.944C326.834 27.928 327.442 30.136 327.442 32.568V75H284.146ZM284.626 62.424H314.866V52.152H283.474V61.272C283.474 61.592 283.57 61.88 283.762 62.136C284.018 62.328 284.306 62.424 284.626 62.424ZM336.715 75V19.32H380.011C382.443 19.32 384.651 19.928 386.635 21.144C388.683 22.36 390.283 23.96 391.435 25.944C392.651 27.928 393.259 30.136 393.259 32.568V75H380.683V33.048C380.683 32.728 380.555 32.472 380.299 32.28C380.107 32.024 379.851 31.896 379.531 31.896H350.443C350.123 31.896 349.835 32.024 349.579 32.28C349.387 32.472 349.291 32.728 349.291 33.048V75H336.715ZM403.367 75V19.32H415.943V75H403.367ZM403.367 13.752V1.08H415.943V13.752H403.367ZM425.497 75V61.272L463.513 31.896H425.497V19.32H482.041V33.048L444.025 62.424H482.041V75H425.497ZM503.053 75C500.621 75 498.381 74.392 496.333 73.176C494.349 71.96 492.749 70.36 491.533 68.376C490.381 66.392 489.805 64.184 489.805 61.752V40.824H533.773V33.048C533.773 32.728 533.645 32.472 533.389 32.28C533.197 32.024 532.941 31.896 532.621 31.896H489.805V19.32H533.101C535.533 19.32 537.741 19.928 539.725 21.144C541.773 22.36 543.373 23.96 544.525 25.944C545.741 27.928 546.349 30.136 546.349 32.568V75H503.053ZM503.533 62.424H533.773V52.152H502.381V61.272C502.381 61.592 502.477 61.88 502.669 62.136C502.925 62.328 503.213 62.424 503.533 62.424ZM566.988 75C564.556 75 562.348 74.392 560.364 73.176C558.38 71.96 556.78 70.36 555.564 68.376C554.348 66.392 553.74 64.184 553.74 61.752V32.568C553.74 30.136 554.348 27.928 555.564 25.944C556.78 23.96 558.38 22.36 560.364 21.144C562.348 19.928 564.556 19.32 566.988 19.32H610.188V31.896H567.468C567.148 31.896 566.86 32.024 566.604 32.28C566.412 32.472 566.316 32.728 566.316 33.048V61.272C566.316 61.592 566.412 61.88 566.604 62.136C566.86 62.328 567.148 62.424 567.468 62.424H610.284V75H566.988ZM597.642 96.024V83.352H621.162C621.482 83.352 621.738 83.224 621.93 82.968C622.186 82.776 622.314 82.52 622.314 82.2V19.32H634.89V82.776C634.89 85.208 634.282 87.416 633.066 89.4C631.914 91.448 630.314 93.048 628.266 94.2C626.282 95.416 624.074 96.024 621.642 96.024H597.642ZM622.314 13.752V1.08H634.89V13.752H622.314ZM657.459 75C655.027 75 652.787 74.392 650.739 73.176C648.755 71.96 647.155 70.36 645.939 68.376C644.787 66.392 644.211 64.184 644.211 61.752V40.824H688.179V33.048C688.179 32.728 688.051 32.472 687.795 32.28C687.603 32.024 687.347 31.896 687.027 31.896H644.211V19.32H687.507C689.939 19.32 692.147 19.928 694.131 21.144C696.179 22.36 697.779 23.96 698.931 25.944C700.147 27.928 700.755 30.136 700.755 32.568V75H657.459ZM657.939 62.424H688.179V52.152H656.787V61.272C656.787 61.592 656.883 61.88 657.075 62.136C657.331 62.328 657.619 62.424 657.939 62.424ZM205.778 195L180.626 125.88H194.066L210.77 171.48L227.474 125.88H239.858L256.562 171.48L273.17 125.88H286.706L261.554 195H251.57L233.618 146.04L215.762 195H205.778ZM305.2 195C302.768 195 300.528 194.392 298.48 193.176C296.496 191.96 294.896 190.36 293.68 188.376C292.464 186.328 291.856 184.088 291.856 181.656V139.224C291.856 136.792 292.464 134.584 293.68 132.6C294.896 130.552 296.496 128.92 298.48 127.704C300.528 126.488 302.768 125.88 305.2 125.88H347.632C350.064 125.88 352.272 126.488 354.256 127.704C356.304 128.92 357.936 130.552 359.152 132.6C360.368 134.584 360.976 136.792 360.976 139.224V181.656C360.976 184.088 360.368 186.328 359.152 188.376C357.936 190.36 356.304 191.96 354.256 193.176C352.272 194.392 350.064 195 347.632 195H305.2ZM305.68 182.232H346.96C347.28 182.232 347.568 182.136 347.824 181.944C348.08 181.688 348.208 181.4 348.208 181.08V139.8C348.208 139.48 348.08 139.224 347.824 139.032C347.568 138.776 347.28 138.648 346.96 138.648H305.68C305.36 138.648 305.072 138.776 304.816 139.032C304.624 139.224 304.528 139.48 304.528 139.8V181.08C304.528 181.4 304.624 181.688 304.816 181.944C305.072 182.136 305.36 182.232 305.68 182.232ZM371.74 195V139.224C371.74 136.792 372.348 134.584 373.564 132.6C374.78 130.552 376.38 128.92 378.364 127.704C380.412 126.488 382.652 125.88 385.084 125.88H427.42C429.852 125.88 432.092 126.488 434.14 127.704C436.188 128.92 437.82 130.552 439.036 132.6C440.252 134.584 440.86 136.792 440.86 139.224V195H428.092V171.768H384.412V195H371.74ZM384.412 159.096H428.092V139.8C428.092 139.48 427.964 139.224 427.708 139.032C427.452 138.776 427.164 138.648 426.844 138.648H385.564C385.244 138.648 384.956 138.776 384.7 139.032C384.508 139.224 384.412 139.48 384.412 139.8V159.096ZM464.854 195C462.422 195 460.182 194.392 458.134 193.176C456.15 191.96 454.55 190.36 453.334 188.376C452.118 186.328 451.51 184.088 451.51 181.656V176.376H464.182V181.08C464.182 181.4 464.278 181.688 464.47 181.944C464.726 182.136 465.014 182.232 465.334 182.232H506.71C507.03 182.232 507.286 182.136 507.478 181.944C507.734 181.688 507.862 181.4 507.862 181.08V167.928C507.862 167.608 507.734 167.352 507.478 167.16C507.286 166.968 507.03 166.872 506.71 166.872H464.854C462.422 166.872 460.182 166.264 458.134 165.048C456.15 163.832 454.55 162.232 453.334 160.248C452.118 158.2 451.51 155.928 451.51 153.432V139.224C451.51 136.792 452.118 134.584 453.334 132.6C454.55 130.552 456.15 128.92 458.134 127.704C460.182 126.488 462.422 125.88 464.854 125.88H507.286C509.718 125.88 511.926 126.488 513.91 127.704C515.958 128.92 517.59 130.552 518.806 132.6C520.022 134.584 520.63 136.792 520.63 139.224V144.504H507.862V139.8C507.862 139.48 507.734 139.224 507.478 139.032C507.286 138.776 507.03 138.648 506.71 138.648H465.334C465.014 138.648 464.726 138.776 464.47 139.032C464.278 139.224 464.182 139.48 464.182 139.8V152.952C464.182 153.272 464.278 153.528 464.47 153.72C464.726 153.912 465.014 154.008 465.334 154.008H507.286C509.718 154.008 511.926 154.616 513.91 155.832C515.958 157.048 517.59 158.68 518.806 160.728C520.022 162.712 520.63 164.952 520.63 167.448V181.656C520.63 184.088 520.022 186.328 518.806 188.376C517.59 190.36 515.958 191.96 513.91 193.176C511.926 194.392 509.718 195 507.286 195H464.854Z" fill="#EEEEEE"/>
</svg>
